<?xml version="1.0" encoding="UTF-8"?>
<!DOCTYPE svg PUBLIC "-//W3C//DTD SVG 1.1//EN" "http://www.w3.org/Graphics/SVG/1.1/DTD/svg11.dtd">
<svg version="1.1" xmlns="http://www.w3.org/2000/svg" xmlns:xlink="http://www.w3.org/1999/xlink" x="0" y="0" width="728" height="576" viewBox="0, 0, 728, 576">
  <g id="Layer_1">
    <path d="M709.26,570.444 L637.208,570.444 C637.208,300.564 709.26,300.904 709.26,300.904 C709.26,300.904 745.964,292.86 715.236,403.492 C715.236,403.492 707.9,551.292 709.26,570.444" fill="#987355"/>
    <path d="M526.884,448.624 L435.38,429.992 L435.38,570.444 L483.712,570.444 L526.884,448.624" fill="#86744F"/>
    <path d="M462.908,570.444 L2.164,570.444 L2.164,368.148 L527.792,425.832 L462.908,570.444" fill="#C4AA73"/>
    <g>
      <path d="M14.312,213.312 C14.312,213.312 105.604,161.656 124.832,158.052 L123.632,215.708 L22.732,226.528 L14.312,213.312 z" fill="#9E9F9E"/>
      <path d="M14.312,213.312 C14.312,213.312 105.604,161.656 124.832,158.052 L123.632,215.708 L22.732,226.528 L14.312,213.312 z" fill-opacity="0" stroke="#55271D" stroke-width="5.668" stroke-linecap="round" stroke-linejoin="round"/>
    </g>
    <g>
      <path d="M305.02,134.02 C305.02,134.02 230.54,120.816 198.096,122.008 C198.096,122.008 112.828,141.236 100.808,153.248 L168.068,176.072 L195.7,171.268 L305.02,134.02 z" fill="#9E9F9E"/>
      <path d="M305.02,134.02 C305.02,134.02 230.54,120.816 198.096,122.008 C198.096,122.008 112.828,141.236 100.808,153.248 L168.068,176.072 L195.7,171.268 L305.02,134.02 z" fill-opacity="0" stroke="#55271D" stroke-width="5.668" stroke-linecap="round" stroke-linejoin="round"/>
    </g>
    <g>
      <path d="M41.944,423.532 L176.488,368.272 L345.86,380.284 L226.94,479.992 L41.944,423.532 z" fill="#CBCCCB"/>
      <path d="M41.944,423.532 L176.488,368.272 L345.86,380.284 L226.94,479.992 L41.944,423.532 z" fill-opacity="0" stroke="#55271D" stroke-width="5.668" stroke-linecap="round" stroke-linejoin="round"/>
    </g>
    <g>
      <path d="M41.944,423.532 L46.756,484.8 L226.94,526.844 L226.94,455.96 L41.944,423.532 z" fill="#B4B5B4"/>
      <path d="M41.944,423.532 L46.756,484.8 L226.94,526.844 L226.94,455.96 L41.944,423.532 z" fill-opacity="0" stroke="#55271D" stroke-width="5.668" stroke-linecap="round" stroke-linejoin="round"/>
    </g>
    <g>
      <path d="M226.94,455.96 L345.86,380.284 L345.86,428.332 L226.94,526.844 L226.94,455.96 z" fill="#9E9F9E"/>
      <path d="M226.94,455.96 L345.86,380.284 L345.86,428.332 L226.94,526.844 L226.94,455.96 z" fill-opacity="0" stroke="#55271D" stroke-width="5.668" stroke-linecap="round" stroke-linejoin="round"/>
    </g>
    <g>
      <path d="M88.788,388.696 L88.788,412.728 C88.788,412.724 168.068,434.336 238.948,429.54 L237.752,389.896 L88.788,388.696 z" fill="#B4B5B4"/>
      <path d="M88.788,388.696 L88.788,412.728 C88.788,412.724 168.068,434.336 238.948,429.54 L237.752,389.896 L88.788,388.696 z" fill-opacity="0" stroke="#55271D" stroke-width="5.668" stroke-linecap="round" stroke-linejoin="round"/>
    </g>
    <g>
      <path d="M238.948,429.54 L307.428,382.692 L303.82,359.864 L237.752,389.896 L238.948,429.54 z" fill="#9E9F9E"/>
      <path d="M238.948,429.54 L307.428,382.692 L303.82,359.864 L237.752,389.896 L238.948,429.54 z" fill-opacity="0" stroke="#55271D" stroke-width="5.668" stroke-linecap="round" stroke-linejoin="round"/>
    </g>
    <g>
      <path d="M281.624,495.936 L281.624,529.576 L404.148,554.796 L404.148,525.968 L281.624,495.936 z" fill="#B4B5B4"/>
      <path d="M281.624,495.936 L281.624,529.576 L404.148,554.796 L404.148,525.968 L281.624,495.936 z" fill-opacity="0" stroke="#55271D" stroke-width="5.668" stroke-linecap="round" stroke-linejoin="round"/>
    </g>
    <g>
      <path d="M404.148,525.968 L455.816,414.248 L386.12,404.636 L281.624,495.936 L404.148,525.968 z" fill="#CBCCCB"/>
      <path d="M404.148,525.968 L455.816,414.248 L386.12,404.636 L281.624,495.936 L404.148,525.968 z" fill-opacity="0" stroke="#55271D" stroke-width="5.668" stroke-linecap="round" stroke-linejoin="round"/>
    </g>
    <g>
      <path d="M404.148,525.968 L404.148,554.796 L457.016,434.668 L455.816,414.248 L404.148,525.968 z" fill="#9E9F9E"/>
      <path d="M404.148,525.968 L404.148,554.796 L457.016,434.668 L455.816,414.248 L404.148,525.968 z" fill-opacity="0" stroke="#55271D" stroke-width="5.668" stroke-linecap="round" stroke-linejoin="round"/>
    </g>
    <g>
      <path d="M396.98,512.388 L306.248,488.912 L389.3,415.332 L440.304,422.116 L396.98,512.388 z" fill="#E4E4E3"/>
      <path d="M396.98,512.388 L306.248,488.912 L389.3,415.332 L440.304,422.116 L396.98,512.388 z" fill-opacity="0" stroke="#55271D" stroke-width="5.668" stroke-linecap="round" stroke-linejoin="round"/>
    </g>
    <path d="M325.64,493.932 L400.68,416.852 M345.036,498.948 L411.94,418.344 M365.568,504.252 L419.984,419.416 M381.392,508.352 L430.504,420.808 M320.18,476.556 L404.12,497.476 M336.044,464.968 L410.796,483.592 M347.58,452.3 L416.896,470.884 M359.988,441.296 L423.308,457.552 M371.876,430.772 L430.088,443.428 M381.18,422.54 L435.428,432.288" fill-opacity="0" stroke="#55271D" stroke-width="5.668" stroke-linecap="round" stroke-linejoin="round"/>
    <g>
      <path d="M458.372,411.676 C439.968,393.608 404.724,411.032 385.78,419.944 C379.356,422.984 368.616,429.384 378.368,432.636 C387.152,435.564 402.56,429.096 410.848,425.488 C405.296,428.496 397.696,433.372 392.664,437.184 C388.648,440.216 374.912,451.72 382.904,454.724 C388.116,456.676 409.948,443.696 415.412,439.784 C411.448,442.612 399.224,463.732 402.404,467.72 C409.544,476.648 423.1,450.252 425.16,445.632 C424.9,449.964 425.6,455.552 425.812,459.924 C425.992,464.108 427.012,475.452 432.3,469.672 C437.804,463.62 436.424,451.564 437.492,444.328 C437.572,443.908 459.416,434.504 461.136,432.524 C467.496,425.284 464.892,418.056 458.372,411.676 z" fill="#F5C4AD"/>
      <path d="M458.372,411.676 C439.968,393.608 404.724,411.032 385.78,419.944 C379.356,422.984 368.616,429.384 378.368,432.636 C387.152,435.564 402.56,429.096 410.848,425.488 C405.296,428.496 397.696,433.372 392.664,437.184 C388.648,440.216 374.912,451.72 382.904,454.724 C388.116,456.676 409.948,443.696 415.412,439.784 C411.448,442.612 399.224,463.732 402.404,467.72 C409.544,476.648 423.1,450.252 425.16,445.632 C424.9,449.964 425.6,455.552 425.812,459.924 C425.992,464.108 427.012,475.452 432.3,469.672 C437.804,463.62 436.424,451.564 437.492,444.328 C437.572,443.908 459.416,434.504 461.136,432.524 C467.496,425.284 464.892,418.056 458.372,411.676 z" fill-opacity="0" stroke="#55271D" stroke-width="5.668" stroke-linecap="round" stroke-linejoin="round"/>
    </g>
    <g>
      <path d="M440.828,450.512 C422.424,432.444 387.164,449.872 368.228,458.796 C361.812,461.82 351.072,468.22 360.82,471.472 C369.604,474.4 385.012,467.94 393.304,464.324 C387.752,467.332 380.152,472.208 375.104,476.02 C371.092,479.052 357.356,490.556 365.356,493.568 C370.56,495.512 392.392,482.532 397.852,478.62 C393.904,481.448 381.664,502.568 384.856,506.556 C391.988,515.492 405.532,489.092 407.6,484.468 C407.356,488.8 408.06,494.388 408.244,498.76 C408.42,502.944 409.464,514.292 414.748,508.508 C420.26,502.456 418.88,490.4 419.944,483.168 C420,482.744 441.872,473.34 443.588,471.368 C449.952,464.12 447.344,456.892 440.828,450.512 z" fill="#F5C4AD"/>
      <path d="M440.828,450.512 C422.424,432.444 387.164,449.872 368.228,458.796 C361.812,461.82 351.072,468.22 360.82,471.472 C369.604,474.4 385.012,467.94 393.304,464.324 C387.752,467.332 380.152,472.208 375.104,476.02 C371.092,479.052 357.356,490.556 365.356,493.568 C370.56,495.512 392.392,482.532 397.852,478.62 C393.904,481.448 381.664,502.568 384.856,506.556 C391.988,515.492 405.532,489.092 407.6,484.468 C407.356,488.8 408.06,494.388 408.244,498.76 C408.42,502.944 409.464,514.292 414.748,508.508 C420.26,502.456 418.88,490.4 419.944,483.168 C420,482.744 441.872,473.34 443.588,471.368 C449.952,464.12 447.344,456.892 440.828,450.512 z" fill-opacity="0" stroke="#55271D" stroke-width="5.668" stroke-linecap="round" stroke-linejoin="round"/>
    </g>
    <g>
      <path d="M478.132,411.328 L462.62,405.7 L455.584,439.516 L472.712,445.148 L478.132,411.328 z" fill="#FFFFFE"/>
      <path d="M478.132,411.328 L462.62,405.7 L455.584,439.516 L472.712,445.148 L478.132,411.328 z" fill-opacity="0" stroke="#55271D" stroke-width="5.668" stroke-linecap="round" stroke-linejoin="round"/>
    </g>
    <g>
      <path d="M577.82,435.588 L472.344,403.184 L463.664,448.276 C498.208,456.644 532.744,464.992 567.288,473.36 C574.328,475.072 577.82,435.588 577.82,435.588 z" fill="#B4B5B4"/>
      <path d="M577.82,435.588 L472.344,403.184 L463.664,448.276 C498.208,456.644 532.744,464.992 567.288,473.36 C574.328,475.072 577.82,435.588 577.82,435.588 z" fill-opacity="0" stroke="#55271D" stroke-width="5.668" stroke-linecap="round" stroke-linejoin="round"/>
    </g>
    <g>
      <path d="M590.828,256.56 L551.024,289.236 L545.52,334.388 L595.624,277.388 L590.828,256.56 z" fill="#FFFFFE"/>
      <path d="M590.828,256.56 L551.024,289.236 L545.52,334.388 L595.624,277.388 L590.828,256.56 z" fill-opacity="0" stroke="#55271D" stroke-width="5.668" stroke-linecap="round" stroke-linejoin="round"/>
    </g>
    <g>
      <path d="M463.612,60.028 C447.892,78.68 440.908,101.38 442.652,129.824 C443.228,139.436 444.844,148.88 447.292,158.184 C449.248,165.556 459.232,182.116 457.98,189.064 C457.98,189.092 449.976,233.908 449.976,233.908 L467.6,233.908 C467.6,233.908 490.02,331.624 566.9,246.732 L574.904,289.98 L590.932,280.364 C590.932,280.364 595.732,225.964 595.732,225.9 C596.512,217.228 609.496,208.16 614.528,201.824 C647.036,160.88 649.12,81.3 609.184,43.096 C598.1,32.492 579.096,23.748 563.692,22.492 C539.68,20.528 508.712,24.796 488.692,38.136 C478.732,44.784 470.364,52.04 463.612,60.028 z" fill="#F5C4AD"/>
      <path d="M463.612,60.028 C447.892,78.68 440.908,101.38 442.652,129.824 C443.228,139.436 444.844,148.88 447.292,158.184 C449.248,165.556 459.232,182.116 457.98,189.064 C457.98,189.092 449.976,233.908 449.976,233.908 L467.6,233.908 C467.6,233.908 490.02,331.624 566.9,246.732 L574.904,289.98 L590.932,280.364 C590.932,280.364 595.732,225.964 595.732,225.9 C596.512,217.228 609.496,208.16 614.528,201.824 C647.036,160.88 649.12,81.3 609.184,43.096 C598.1,32.492 579.096,23.748 563.692,22.492 C539.68,20.528 508.712,24.796 488.692,38.136 C478.732,44.784 470.364,52.04 463.612,60.028 z" fill-opacity="0" stroke="#55271D" stroke-width="5.668" stroke-linecap="round" stroke-linejoin="round"/>
    </g>
    <path d="M478.808,256.336 C478.808,256.336 512.436,265.944 515.644,229.108" fill-opacity="0" stroke="#55271D" stroke-width="5.668" stroke-linecap="round" stroke-linejoin="round"/>
    <g>
      <path d="M611.74,28.896 C611.74,28.896 547.684,-27.168 461.188,33.708 C461.188,33.708 395.52,83.36 441.972,158.636 C441.972,158.636 467.6,141.012 472.4,91.372 C472.4,91.372 474.012,136.212 494.816,153.832 C494.816,153.832 514.056,131.416 510.848,91.372 C510.848,91.372 522.06,145.824 546.072,158.636 C546.072,158.636 557.304,165.044 555.688,192.272 C555.688,192.272 568.488,139.416 594.14,144.22 C594.14,144.22 619.764,169.84 582.904,205.084 C582.904,205.084 595.732,233.916 594.14,251.54 C594.14,251.54 605.348,243.532 606.94,221.096 C606.94,221.096 614.94,235.52 611.74,246.732 C611.74,246.732 621.356,233.908 621.356,216.296 C621.356,216.296 714.264,100.972 611.74,28.896 z" fill="#865344"/>
      <path d="M611.74,28.896 C611.74,28.896 547.684,-27.168 461.188,33.708 C461.188,33.708 395.52,83.36 441.972,158.636 C441.972,158.636 467.6,141.012 472.4,91.372 C472.4,91.372 474.012,136.212 494.816,153.832 C494.816,153.832 514.056,131.416 510.848,91.372 C510.848,91.372 522.06,145.824 546.072,158.636 C546.072,158.636 557.304,165.044 555.688,192.272 C555.688,192.272 568.488,139.416 594.14,144.22 C594.14,144.22 619.764,169.84 582.904,205.084 C582.904,205.084 595.732,233.916 594.14,251.54 C594.14,251.54 605.348,243.532 606.94,221.096 C606.94,221.096 614.94,235.52 611.74,246.732 C611.74,246.732 621.356,233.908 621.356,216.296 C621.356,216.296 714.264,100.972 611.74,28.896 z" fill-opacity="0" stroke="#55271D" stroke-width="5.668" stroke-linecap="round" stroke-linejoin="round"/>
    </g>
    <g>
      <path d="M653.132,570.444 C669.112,317.84 599.172,274.004 598.936,273.96 C591.22,272.388 572.584,289.652 568.908,294.424 C546.616,323.388 535.044,359.088 530.168,394.412 C523.208,444.756 517.836,506.92 515.436,570.444" fill="#B4B5B4"/>
      <path d="M653.132,570.444 C669.112,317.84 599.172,274.004 598.936,273.96 C591.22,272.388 572.584,289.652 568.908,294.424 C546.616,323.388 535.044,359.088 530.168,394.412 C523.208,444.756 517.836,506.92 515.436,570.444" fill-opacity="0" stroke="#55271D" stroke-width="5.668" stroke-linecap="round" stroke-linejoin="round"/>
    </g>
    <g>
      <path d="M204.12,157.56 L100.808,153.248 L112.828,201.3 L14.312,213.312 C14.312,213.312 17.908,320.22 39.544,394.704 C39.544,394.704 112.828,409.116 236.552,411.52 L250.964,389.896 L204.12,157.56 z" fill="#B4B5B4"/>
      <path d="M204.12,157.56 L100.808,153.248 L112.828,201.3 L14.312,213.312 C14.312,213.312 17.908,320.22 39.544,394.704 C39.544,394.704 112.828,409.116 236.552,411.52 L250.964,389.896 L204.12,157.56 z" fill-opacity="0" stroke="#55271D" stroke-width="5.668" stroke-linecap="round" stroke-linejoin="round"/>
    </g>
    <g>
      <path d="M540.544,352.076 C540.544,352.076 517.888,380.248 522.32,449.872 C522.32,449.872 574.796,341.02 540.544,352.076 z" fill="#B81D6C"/>
      <path d="M540.544,352.076 C540.544,352.076 517.888,380.248 522.32,449.872 C522.32,449.872 574.796,341.02 540.544,352.076 z" fill-opacity="0" stroke="#55271D" stroke-width="5.668" stroke-linecap="round" stroke-linejoin="round"/>
    </g>
    <g>
      <path d="M559.888,321.68 C559.888,321.68 547.74,322.788 540.544,338.808 C540.544,338.808 531.704,353.732 549.38,355.38 C549.38,355.38 560.432,351.516 559.888,321.68 z" fill="#B81D6C"/>
      <path d="M559.888,321.68 C559.888,321.68 547.74,322.788 540.544,338.808 C540.544,338.808 531.704,353.732 549.38,355.38 C549.38,355.38 560.432,351.516 559.888,321.68 z" fill-opacity="0" stroke="#55271D" stroke-width="5.668" stroke-linecap="round" stroke-linejoin="round"/>
    </g>
    <g>
      <path d="M603.736,276.332 L589.448,342.272 L559.86,342.272 L572.556,354.956 L524.456,442.188 C524.456,442.188 554.616,284.336 603.736,276.332 z" fill="#B4B5B4"/>
      <path d="M603.736,276.332 L589.448,342.272 L559.86,342.272 L572.556,354.956 L524.456,442.188 C524.456,442.188 554.616,284.336 603.736,276.332 z" fill-opacity="0" stroke="#55271D" stroke-width="5.668" stroke-linecap="round" stroke-linejoin="round"/>
    </g>
    <g>
      <path d="M600.216,258.772 L560.408,291.444 L554.908,336.596 L605.012,279.588 L600.216,258.772 z" fill="#FFFFFE"/>
      <path d="M600.216,258.772 L560.408,291.444 L554.908,336.596 L605.012,279.588 L600.216,258.772 z" fill-opacity="0" stroke="#55271D" stroke-width="5.668" stroke-linecap="round" stroke-linejoin="round"/>
    </g>
    <g>
      <path d="M453.524,447.932 L437.436,444.348 L434.804,478.796 L452.532,482.176 L453.524,447.932 z" fill="#FFFFFE"/>
      <path d="M453.524,447.932 L437.436,444.348 L434.804,478.796 L452.532,482.176 L453.524,447.932 z" fill-opacity="0" stroke="#55271D" stroke-width="5.668" stroke-linecap="round" stroke-linejoin="round"/>
    </g>
    <g>
      <path d="M613.612,320.336 C613.612,320.336 585.3,321.188 584.756,382.368 L555.504,459.108 L446.72,440.592 L443.956,486.44 C479.276,490.268 514.6,494.084 549.952,497.916 C557.148,498.7 568.644,500.676 575.944,499.652 C589.812,497.684 596.852,477.812 601.388,466.764 C608.008,450.588 612.676,433.712 618.568,417.28 C624.328,401.352 629.956,385.408 632.616,368.616 C634.416,357.04 635.228,342.288 629.8,331.512 C627.068,326.108 620.08,320.336 613.612,320.336 z" fill="#B4B5B4"/>
      <path d="M613.612,320.336 C613.612,320.336 585.3,321.188 584.756,382.368 L555.504,459.108 L446.72,440.592 L443.956,486.44 C479.276,490.268 514.6,494.084 549.952,497.916 C557.148,498.7 568.644,500.676 575.944,499.652 C589.812,497.684 596.852,477.812 601.388,466.764 C608.008,450.588 612.676,433.712 618.568,417.28 C624.328,401.352 629.956,385.408 632.616,368.616 C634.416,357.04 635.228,342.288 629.8,331.512 C627.068,326.108 620.08,320.336 613.612,320.336 z" fill-opacity="0" stroke="#55271D" stroke-width="5.668" stroke-linecap="round" stroke-linejoin="round"/>
    </g>
    <g>
      <path d="M197.668,157.288 C197.668,157.288 211.316,369.476 236.552,411.52 C236.552,411.52 285.792,387.492 317.04,353.856 C317.04,353.856 303.404,191.268 305.02,134.02 C305.02,134.02 234.908,141.672 197.668,157.288 z" fill="#9E9F9E"/>
      <path d="M197.668,157.288 C197.668,157.288 211.316,369.476 236.552,411.52 C236.552,411.52 285.792,387.492 317.04,353.856 C317.04,353.856 303.404,191.268 305.02,134.02 C305.02,134.02 234.908,141.672 197.668,157.288 z" fill-opacity="0" stroke="#55271D" stroke-width="5.668" stroke-linecap="round" stroke-linejoin="round"/>
    </g>
    <g>
      <path d="M216.124,171.268 C216.124,171.268 218.524,307.008 247.368,387.492 C247.368,387.492 285.792,371.876 307.428,349.052 C307.428,349.052 294.684,217.392 296.612,146.04 C296.612,146.04 267.78,154.452 216.124,171.268 z" fill="#FFFFFE"/>
      <path d="M216.124,171.268 C216.124,171.268 218.524,307.008 247.368,387.492 C247.368,387.492 285.792,371.876 307.428,349.052 C307.428,349.052 294.684,217.392 296.612,146.04 C296.612,146.04 267.78,154.452 216.124,171.268 z" fill-opacity="0" stroke="#55271D" stroke-width="5.668" stroke-linecap="round" stroke-linejoin="round"/>
    </g>
    <path d="M228.756,182.372 L239.976,275.276 L286.416,252.848 L282.576,164.272 L228.756,182.372" fill="#D99A8C"/>
    <path d="M262.4,280.072 L238.376,292.892 L252.788,366.564 L275.212,356.964 L262.4,280.072" fill="#A3CAD8"/>
    <path d="M272.004,275.276 L283.216,352.156 L298.112,341.18 L289.624,267.264 L272.004,275.276" fill="#DFB77D"/>
    <g>
      <path d="M495.364,177.104 C498.252,187.904 494.712,198.24 487.452,200.192 C480.188,202.136 471.944,194.952 469.056,184.152 C466.156,173.344 469.704,163.008 476.968,161.068 C484.232,159.116 492.468,166.296 495.364,177.104 z" fill="#FFFFFE"/>
      <path d="M495.364,177.104 C498.252,187.904 494.712,198.24 487.452,200.192 C480.188,202.136 471.944,194.952 469.056,184.152 C466.156,173.344 469.704,163.008 476.968,161.068 C484.232,159.116 492.468,166.296 495.364,177.104 z" fill-opacity="0" stroke="#55271D" stroke-width="5.668" stroke-linecap="round" stroke-linejoin="round"/>
    </g>
    <path d="M485.64,179.708 C487.46,186.524 485.236,193.032 480.66,194.256 C476.072,195.484 470.884,190.964 469.06,184.152 C467.236,177.344 469.46,170.832 474.048,169.6 C478.628,168.376 483.812,172.904 485.64,179.708" fill="#55271D"/>
    <path d="M460.128,156.192 C460.128,156.192 465.832,132.572 487.012,146.42" fill-opacity="0" stroke="#55271D" stroke-width="5.668" stroke-linecap="round" stroke-linejoin="round"/>
  </g>
</svg>
